<svg width="51" height="51" viewBox="0 0 51 51" fill="none" xmlns="http://www.w3.org/2000/svg">
<rect x="0.5" y="0.0195312" width="50" height="50" rx="25" fill="#5865F2"/>
<g clip-path="url(#clip0_1_422)">
<g clip-path="url(#clip1_1_422)">
<g clip-path="url(#clip2_1_422)">
<path d="M30.2729 31.7881C30.2729 31.7881 29.656 31.0507 29.1418 30.4161C31.3869 29.7816 32.2438 28.3925 32.2438 28.3925C31.5411 28.8555 30.8728 29.1814 30.2729 29.4043C29.416 29.7645 28.5934 29.9874 27.7879 30.1417C26.1427 30.4504 24.6345 30.3647 23.3492 30.1246C22.3723 29.9359 21.5326 29.6787 20.8299 29.3872C20.4357 29.2328 20.0073 29.0442 19.5788 28.8041C19.5274 28.7698 19.476 28.7526 19.4246 28.7183C19.3903 28.7012 19.3732 28.684 19.356 28.684C19.0476 28.5125 18.8762 28.3925 18.8762 28.3925C18.8762 28.3925 19.6988 29.7473 21.8753 30.399C21.3612 31.0507 20.7271 31.8052 20.7271 31.8052C16.9396 31.6852 15.5 29.2157 15.5 29.2157C15.5 23.745 17.9679 19.3032 17.9679 19.3032C20.4357 17.4682 22.7665 17.5197 22.7665 17.5197L22.9379 17.7255C19.853 18.6001 18.4477 19.9549 18.4477 19.9549C18.4477 19.9549 18.8248 19.7491 19.4589 19.4747C21.2926 18.6687 22.7494 18.4629 23.3492 18.3943C23.452 18.3772 23.5377 18.36 23.6405 18.36C24.6859 18.2228 25.8685 18.1885 27.1024 18.3257C28.7305 18.5143 30.4786 18.9945 32.2609 19.9549C32.2609 19.9549 30.907 18.6687 27.9936 17.7941L28.2335 17.5197C28.2335 17.5197 30.5814 17.4682 33.0321 19.3032C33.0321 19.3032 35.5 23.745 35.5 29.2157C35.5 29.1985 34.0604 31.668 30.2729 31.7881ZM28.5591 23.8479C27.5823 23.8479 26.8111 24.6882 26.8111 25.7343C26.8111 26.7804 27.5994 27.6208 28.5591 27.6208C29.536 27.6208 30.3072 26.7804 30.3072 25.7343C30.3072 24.6882 29.5189 23.8479 28.5591 23.8479ZM22.3038 23.8479C21.3269 23.8479 20.5557 24.6882 20.5557 25.7343C20.5557 26.7804 21.344 27.6208 22.3038 27.6208C23.2806 27.6208 24.0518 26.7804 24.0518 25.7343C24.069 24.6882 23.2806 23.8479 22.3038 23.8479Z" fill="#F1F1F1"/>
</g>
</g>
</g>
<defs>
<clipPath id="clip0_1_422">
<rect width="20" height="15" fill="white" transform="translate(15.5 17.5195)"/>
</clipPath>
<clipPath id="clip1_1_422">
<rect width="20" height="15" fill="white" transform="translate(15.5 17.5195)"/>
</clipPath>
<clipPath id="clip2_1_422">
<rect width="20" height="15" fill="white" transform="translate(15.5 17.5195)"/>
</clipPath>
</defs>
</svg>
