<svg width="26" height="26" viewBox="0 0 26 26" fill="none" xmlns="http://www.w3.org/2000/svg">
<path d="M24.9336 10.6455H23.9533V10.595H13.0002V15.4631H19.8782C18.8747 18.2969 16.1784 20.3311 13.0002 20.3311C8.96764 20.3311 5.69813 17.0616 5.69813 13.029C5.69813 8.99645 8.96764 5.72694 13.0002 5.72694C14.8616 5.72694 16.5551 6.42916 17.8445 7.57619L21.2869 4.13387C19.1133 2.10815 16.2058 0.858887 13.0002 0.858887C6.27926 0.858887 0.830078 6.30807 0.830078 13.029C0.830078 19.75 6.27926 25.1992 13.0002 25.1992C19.7212 25.1992 25.1704 19.75 25.1704 13.029C25.1704 12.213 25.0864 11.4165 24.9336 10.6455Z" fill="#FFC107"/>
<path d="M2.2334 7.36443L6.2319 10.2968C7.31382 7.61818 9.93406 5.72694 13.0003 5.72694C14.8617 5.72694 16.5552 6.42916 17.8446 7.57619L21.287 4.13387C19.1134 2.10815 16.2059 0.858887 13.0003 0.858887C8.32577 0.858887 4.2719 3.49798 2.2334 7.36443Z" fill="#FF3D00"/>
<path d="M13.0005 25.1998C16.144 25.1998 19.0004 23.9968 21.16 22.0405L17.3933 18.8531C16.1304 19.8136 14.5871 20.333 13.0005 20.3318C9.83503 20.3318 7.14725 18.3134 6.1347 15.4966L2.16602 18.5543C4.18017 22.4956 8.27056 25.1998 13.0005 25.1998Z" fill="#4CAF50"/>
<path d="M24.9344 10.6457H23.9541V10.5952H13.001V15.4633H19.8789C19.3989 16.812 18.5343 17.9905 17.392 18.8533L17.3938 18.852L21.1604 22.0394C20.8939 22.2816 25.1711 19.1143 25.1711 13.0292C25.1711 12.2132 25.0871 11.4167 24.9344 10.6457Z" fill="#1976D2"/>
</svg>
