<svg width="42" height="43" viewBox="0 0 42 43" fill="none" xmlns="http://www.w3.org/2000/svg">
<g clip-path="url(#clip0_1_238)">
<g clip-path="url(#clip1_1_238)">
<path d="M34.5 8.4375C27.7 8.5375 21 13.4375 17.6 16.8375C14.2 16.8375 9.1 18.5375 7.5 21.9375H16L14.3 25.3375L17.6 28.7375L21 26.9375V35.4375C24.4 33.7375 26.1 28.6375 26.1 25.3375C29.4 21.9375 34.4 15.2375 34.5 8.4375ZM27.7 13.4375C28.6 13.4375 29.4 14.2375 29.4 15.1375C29.4 16.0375 28.6 16.8375 27.7 16.8375C26.8 16.8375 26 16.0375 26 15.1375C26 14.2375 26.8 13.4375 27.7 13.4375ZM13.5 26.3375C13.5 26.3375 10.8 27.3375 10.8 32.1375C15.5 32.1375 16.6 29.4375 16.6 29.4375L16.3 29.1375C16.3 29.1375 15.1 30.1375 12.9 30.1375C12.9 27.9375 13.9 26.7375 13.9 26.7375L13.5 26.3375Z" fill="black"/>
<path d="M34.5 8.4375C27.7 8.5375 21 13.4375 17.6 16.8375C14.2 16.8375 9.1 18.5375 7.5 21.9375H16L14.3 25.3375L17.6 28.7375L21 26.9375V35.4375C24.4 33.7375 26.1 28.6375 26.1 25.3375C29.4 21.9375 34.4 15.2375 34.5 8.4375ZM27.7 13.4375C28.6 13.4375 29.4 14.2375 29.4 15.1375C29.4 16.0375 28.6 16.8375 27.7 16.8375C26.8 16.8375 26 16.0375 26 15.1375C26 14.2375 26.8 13.4375 27.7 13.4375ZM13.5 26.3375C13.5 26.3375 10.8 27.3375 10.8 32.1375C15.5 32.1375 16.6 29.4375 16.6 29.4375L16.3 29.1375C16.3 29.1375 15.1 30.1375 12.9 30.1375C12.9 27.9375 13.9 26.7375 13.9 26.7375L13.5 26.3375Z" fill="url(#paint0_linear_1_238)"/>
</g>
</g>
<defs>
<linearGradient id="paint0_linear_1_238" x1="172.742" y1="-97.3069" x2="-2.7903" y2="41.8673" gradientUnits="userSpaceOnUse">
<stop stop-color="#FAD961"/>
<stop offset="1" stop-color="#F76B1C"/>
</linearGradient>
<clipPath id="clip0_1_238">
<rect width="42" height="42" fill="white" transform="translate(0 0.9375)"/>
</clipPath>
<clipPath id="clip1_1_238">
<rect width="42" height="42" fill="white" transform="translate(0 0.9375)"/>
</clipPath>
</defs>
</svg>
