<svg width="21" height="20" viewBox="0 0 21 20" fill="none" xmlns="http://www.w3.org/2000/svg">
<path d="M10.5605 0C5.04655 0 0.560547 4.486 0.560547 10C0.560547 15.514 5.04655 20 10.5605 20C16.0745 20 20.5605 15.514 20.5605 10C20.5605 4.486 16.0745 0 10.5605 0ZM8.56155 14.413L5.556 11.4139C5.16525 11.024 5.16446 10.3912 5.55424 10.0003C5.94426 9.60918 6.57756 9.60846 6.96847 9.9987L8.55955 11.587L13.1465 7C13.537 6.60953 14.1701 6.60953 14.5605 7C14.951 7.39047 14.951 8.02353 14.5605 8.414L8.56155 14.413Z" fill="#FA9021"/>
</svg>
