<svg width="51" height="51" viewBox="0 0 51 51" fill="none" xmlns="http://www.w3.org/2000/svg">
<rect x="0.5" y="0.0195312" width="50" height="50" rx="25" fill="#3EA1F2"/>
<g clip-path="url(#clip0_1_412)">
<g clip-path="url(#clip1_1_412)">
<g clip-path="url(#clip2_1_412)">
<path d="M35.5 18.9142C34.751 19.2404 33.9567 19.4546 33.1434 19.5498C34.0002 19.0449 34.6414 18.2506 34.9474 17.3148C34.1423 17.7857 33.261 18.1172 32.342 18.2947C31.5661 17.48 30.482 17.0183 29.3476 17.0195C27.0818 17.0195 25.2442 18.8279 25.2442 21.0592C25.2442 21.3757 25.2812 21.6827 25.3502 21.9789C21.9386 21.8098 18.9163 20.2027 16.8919 17.7585C16.5274 18.3749 16.3359 19.0757 16.3368 19.7889C16.3368 21.1903 17.0615 22.4272 18.1622 23.1514C17.5106 23.1311 16.8734 22.9579 16.3036 22.646C16.303 22.6629 16.303 22.6799 16.303 22.696C16.303 24.6536 17.7175 26.2867 19.5952 26.6575C19.2427 26.7514 18.8792 26.7988 18.5142 26.7985C18.249 26.7985 17.9917 26.7745 17.7416 26.7273C18.2641 28.3317 19.7785 29.4998 21.5747 29.5319C20.1212 30.6549 18.3262 31.2641 16.4785 31.2615C16.1515 31.2618 15.8247 31.2428 15.5 31.2047C17.3759 32.3918 19.5594 33.0219 21.7894 33.0195C29.3375 33.0195 33.4646 26.8646 33.4646 21.5269C33.4646 21.3523 33.4603 21.177 33.4524 21.0043C34.2557 20.4329 34.9491 19.7252 35.5 18.9142Z" fill="white"/>
</g>
</g>
</g>
<defs>
<clipPath id="clip0_1_412">
<rect width="20" height="16" fill="white" transform="translate(15.5 17.0195)"/>
</clipPath>
<clipPath id="clip1_1_412">
<rect width="20" height="16" fill="white" transform="translate(15.5 17.0195)"/>
</clipPath>
<clipPath id="clip2_1_412">
<rect width="20" height="16" fill="white" transform="translate(15.5 17.0195)"/>
</clipPath>
</defs>
</svg>
