<svg width="42" height="42" viewBox="0 0 42 42" fill="none" xmlns="http://www.w3.org/2000/svg">
<g clip-path="url(#clip0_1_284)">
<path d="M30.66 14.4376H11.96L30.76 11.2376L30.16 10.0376C29.76 8.93762 28.56 8.23762 27.36 8.43762L10.16 11.5376C8.96 11.7376 8.06 12.8376 8.06 14.0376V30.9376C8.06 32.3376 9.16 33.4376 10.56 33.4376H30.56C31.96 33.4376 33.06 32.3376 33.06 30.9376V16.9376C33.16 15.5376 32.06 14.4376 30.66 14.4376ZM28.76 25.8376C27.76 25.8376 26.86 24.9376 26.86 23.9376C26.86 22.9376 27.66 22.0376 28.76 22.0376C29.86 22.0376 30.66 22.9376 30.66 23.9376C30.66 24.9376 29.86 25.8376 28.76 25.8376Z" fill="black"/>
<path d="M30.66 14.4376H11.96L30.76 11.2376L30.16 10.0376C29.76 8.93762 28.56 8.23762 27.36 8.43762L10.16 11.5376C8.96 11.7376 8.06 12.8376 8.06 14.0376V30.9376C8.06 32.3376 9.16 33.4376 10.56 33.4376H30.56C31.96 33.4376 33.06 32.3376 33.06 30.9376V16.9376C33.16 15.5376 32.06 14.4376 30.66 14.4376ZM28.76 25.8376C27.76 25.8376 26.86 24.9376 26.86 23.9376C26.86 22.9376 27.66 22.0376 28.76 22.0376C29.86 22.0376 30.66 22.9376 30.66 23.9376C30.66 24.9376 29.86 25.8376 28.76 25.8376Z" fill="url(#paint0_linear_1_284)"/>
</g>
<defs>
<linearGradient id="paint0_linear_1_284" x1="161.435" y1="-89.1212" x2="-1.08316" y2="39.7459" gradientUnits="userSpaceOnUse">
<stop stop-color="#FAD961"/>
<stop offset="1" stop-color="#F76B1C"/>
</linearGradient>
<clipPath id="clip0_1_284">
<rect width="41" height="41" fill="white" transform="translate(0.159973 0.4375)"/>
</clipPath>
</defs>
</svg>
